# xmcd
#
# Track frame offsets:
#	150
#	16411
#	32227
#	47880
#	63515
#	79015
#	95431
#	111860
#	128225
#	140893
#	182227
#
# Disc length: 4247 seconds
# Revision: 0
# Processed by: cddbd v1.5.2PL0 Copyright (c) Steve Scherf et al.
# Submitted via: dBpowerAMP V12.0
#
DISCID=9d10950b
DTITLE=Wolfgang Petry - Ich will noch mehr (Ultimate Best Of) CD2
DYEAR=2008
DGENRE=Schlager
TTITLE0=Glaubst du ich bin blöd
TTITLE1=Alles kein Problem
TTITLE2=Bis irgendwann
TTITLE3=Ballermann
TTITLE4=Das erste Mal im Leben
TTITLE5=Na dann Gute Nacht
TTITLE6=Der Sommer von damals
TTITLE7=Nur ein kleines Stück Papier
TTITLE8=Denn eines Tags vielleicht
TTITLE9=Der Nie Genug Hitmix
TTITLE10=Die längste Single der Welt
EXTD=
EXTT0=
EXTT1=
EXTT2=
EXTT3=
EXTT4=
EXTT5=
EXTT6=
EXTT7=
EXTT8=
EXTT9=
EXTT10=
PLAYORDER=
